<?xml version="1.0" standalone="no"?>
<svg
  width="600"
  height="600"
  viewBox="0 0 600 600"
  xmlns="http://www.w3.org/2000/svg"
>
  <g transform="translate(300,300) scale(1.2)">
    <path d="M115.2,-160.4C155.1,-129.5,197.4,-103.7,215.4,-65.9C233.3,-28,227,21.8,205.4,60C183.7,98.2,146.8,124.8,110.1,145.5C73.3,166.2,36.6,181.1,2.2,178.1C-32.3,175.2,-64.7,154.3,-85.9,128.6C-107.1,102.8,-117.3,72.1,-131.2,40.1C-145.2,8,-162.9,-25.3,-164.6,-63.8C-166.3,-102.2,-151.9,-145.8,-121.8,-179.8C-91.7,-213.9,-45.8,-238.4,-4.1,-232.8C37.6,-227.1,75.2,-191.2,115.2,-160.4Z" fill="#fcb900" />
  </g>
</svg>
    