<?xml version="1.0" standalone="no"?>
<svg
  width="600"
  height="600"
  viewBox="0 0 600 600"
  xmlns="http://www.w3.org/2000/svg"
>
  <g transform="translate(300,300)">
    <path d="M146.2,-168.1C180.2,-145.8,192,-90.9,177.8,-49.4C163.6,-8,123.4,20,98,49.7C72.6,79.3,62.1,110.6,34.1,141.4C6.2,172.3,-39.3,202.7,-75.2,194.8C-111.1,186.9,-137.4,140.7,-156.2,96C-175.1,51.4,-186.5,8.2,-185.3,-38.5C-184,-85.3,-170.1,-135.7,-137.1,-158.2C-104.1,-180.8,-52.1,-175.4,2,-177.8C56.1,-180.2,112.3,-190.5,146.2,-168.1Z" fill="#8ed1fc" />
  </g>
</svg>
    