<svg xmlns="http://www.w3.org/2000/svg" width="1000" height="800" viewBox="0 0 1000 800"  xmlns:xlink="http://www.w3.org/1999/xlink" preserveAspectRatio="xMidYMid meet"><rect id="svgEditorBackground" x="0" y="0" width="600" height="600" style="fill: none; stroke: none;"/><defs id="svgEditorDefs"><polygon id="svgEditorShapeDefs" style="fill:khaki;stroke:black;vector-effect:non-scaling-stroke;stroke-width:1px;"/><pattern height="10" id="hatch-blue-dash-45" patternTransform="rotate(45) scale(0.4)" patternUnits="userSpaceOnUse" viewBox="0 0 24 10" width="24" x="0" y="0"><line style="stroke:blue;stroke-width:1px;stroke-dasharray:4,4;" x1="0" x2="24" y1="5" y2="5"/></pattern></defs>
  <g transform="translate(300,300) scale(1.2)">
    <path d="M115.2,-160.4C155.1,-129.5,197.4,-103.7,215.4,-65.9C233.3,-28,227,21.8,205.4,60C183.7,98.2,146.8,124.8,110.1,145.5C73.3,166.2,36.6,181.1,2.2,178.1C-32.3,175.2,-64.7,154.3,-85.9,128.6C-107.1,102.8,-117.3,72.1,-131.2,40.1C-145.2,8,-162.9,-25.3,-164.6,-63.8C-166.3,-102.2,-151.9,-145.8,-121.8,-179.8C-91.7,-213.9,-45.8,-238.4,-4.1,-232.8C37.6,-227.1,75.2,-191.2,115.2,-160.4Z" fill="#fcb900" transform="matrix(0.824979 0.0617204 -0.0617204 0.824979 57.058 96.9216)"/>
  </g>
<path d="M-3.9684069041357426,-3.7988771243058053v8h9.499999961282882Z" style="fill:#DDDDDD; stroke:none; vector-effect:non-scaling-stroke;stroke-width:1px;" id="e2_shape" transform="matrix(-133.182 -2.78122 -0.697011 -28.3868 431.698 -50.4775)"/></svg>